<?xml version="1.0" standalone="no"?>
<!DOCTYPE svg PUBLIC "-//W3C//DTD SVG 20010904//EN"
 "http://www.w3.org/TR/2001/REC-SVG-20010904/DTD/svg10.dtd">
<svg version="1.0" xmlns="http://www.w3.org/2000/svg"
 width="322.000000pt" height="385.000000pt" viewBox="0 0 322.000000 385.000000"
 preserveAspectRatio="xMidYMid meet">

<g transform="translate(0.000000,385.000000) scale(0.100000,-0.100000)"
fill="#000000" stroke="none">
<path d="M481 3833 c0 -5 168 -384 373 -843 l372 -835 512 -3 c282 -1 512 0
512 3 0 6 -699 1570 -736 1649 l-18 36 -508 0 c-279 0 -508 -3 -507 -7z" fill ="#8F4E8C"/>
<path d="M1064 1998 c-9 -18 -250 -471 -536 -1006 -285 -536 -518 -975 -518
-978 0 -2 450 -4 1000 -4 550 0 1000 1 1000 3 0 1 -201 454 -448 1007 -311
699 -452 1006 -464 1008 -11 2 -23 -9 -34 -30z" fill ="#463B62"/>
<path d="M1290 2016 c0 -2 200 -453 445 -1003 l444 -998 516 -3 c331 -1 516 1
513 8 -1 5 -203 457 -448 1004 l-445 996 -512 0 c-282 0 -513 -2 -513 -4z" fill ="#5E5186"/>
</g>
</svg>
